<svg width="14" height="14" viewBox="0 0 14 14" fill="none" xmlns="http://www.w3.org/2000/svg">
<path d="M3.95834 9.67517L1.74575 7.46259C1.63574 7.35633 1.48838 7.29753 1.33544 7.29886C1.18249 7.30019 1.03618 7.36154 0.928026 7.46969C0.819871 7.57785 0.758523 7.72415 0.757194 7.8771C0.755865 8.03005 0.814661 8.1774 0.92092 8.28742L3.54592 10.9124C3.65531 11.0218 3.80366 11.0832 3.95834 11.0832C4.11302 11.0832 4.26136 11.0218 4.37075 10.9124L10.7874 4.49575C10.8937 4.38574 10.9525 4.23838 10.9511 4.08544C10.9498 3.93249 10.8885 3.78618 10.7803 3.67803C10.6722 3.56987 10.5259 3.50852 10.3729 3.50719C10.22 3.50586 10.0726 3.56466 9.96259 3.67092L3.95834 9.67517Z" fill="white"/>
<path d="M6.95834 9.67517L4.74575 7.46259C4.63574 7.35633 4.48838 7.29753 4.33544 7.29886C4.18249 7.30019 4.03618 7.36154 3.92803 7.46969C3.81987 7.57785 3.75852 7.72415 3.75719 7.8771C3.75586 8.03005 3.81466 8.1774 3.92092 8.28742L6.54592 10.9124C6.65531 11.0218 6.80366 11.0832 6.95834 11.0832C7.11302 11.0832 7.26136 11.0218 7.37075 10.9124L13.7874 4.49575C13.8937 4.38574 13.9525 4.23838 13.9511 4.08544C13.9498 3.93249 13.8885 3.78618 13.7803 3.67803C13.6722 3.56987 13.5259 3.50852 13.3729 3.50719C13.22 3.50586 13.0726 3.56466 12.9626 3.67092L6.95834 9.67517Z" fill="white"/>
</svg>
